<svg width="118" height="24" viewBox="0 0 118 24" fill="none" xmlns="http://www.w3.org/2000/svg">
<path d="M22.2129 23.8066H17.8799L15.7383 17.7471H6.375L4.31641 23.8066H0L8.91504 0H13.3643L22.2129 23.8066ZM14.6924 14.5264L11.3887 5.03027C11.2891 4.72038 11.1839 4.22233 11.0732 3.53613H11.0068C10.9072 4.16699 10.7965 4.66504 10.6748 5.03027L7.4043 14.5264H14.6924ZM43.6816 23.8066H30.5V0H34.4512V20.4697H43.6816V23.8066ZM65.3496 3.35352H58.5098V23.8066H54.5586V3.35352H47.7354V0H65.3496V3.35352ZM90.9854 0L83.1826 15.1572V23.8066H79.2314V15.2402L71.6279 0H76.127L80.8086 10.21C80.8639 10.3317 81.0299 10.791 81.3066 11.5879H81.3564C81.4561 11.2337 81.6387 10.7744 81.9043 10.21L86.8018 0H90.9854ZM117.418 23.8066H112.803L109.001 17.4316C108.658 16.8451 108.32 16.347 107.988 15.9375C107.667 15.5169 107.335 15.1738 106.992 14.9082C106.66 14.6426 106.295 14.4489 105.896 14.3271C105.498 14.2054 105.05 14.1445 104.552 14.1445H102.958V23.8066H99.0234V0H106.859C107.977 0 109.007 0.132812 109.947 0.398438C110.888 0.664062 111.707 1.06803 112.404 1.61035C113.102 2.1416 113.644 2.8112 114.031 3.61914C114.43 4.41602 114.629 5.35124 114.629 6.4248C114.629 7.26595 114.502 8.04069 114.247 8.74902C114.004 9.44629 113.649 10.0716 113.185 10.625C112.731 11.1673 112.177 11.6322 111.524 12.0195C110.882 12.4069 110.158 12.7057 109.35 12.916V12.9824C109.781 13.2259 110.158 13.4971 110.479 13.7959C110.799 14.0837 111.104 14.3825 111.392 14.6924C111.679 15.0023 111.962 15.3564 112.238 15.7549C112.526 16.1423 112.841 16.596 113.185 17.1162L117.418 23.8066ZM102.958 3.2041V10.9404H106.245C106.854 10.9404 107.413 10.8464 107.922 10.6582C108.442 10.4701 108.89 10.1989 109.267 9.84473C109.643 9.49056 109.936 9.05892 110.146 8.5498C110.357 8.04069 110.462 7.4707 110.462 6.83984C110.462 5.69987 110.102 4.80892 109.383 4.16699C108.663 3.52507 107.629 3.2041 106.278 3.2041H102.958Z" fill="url(#paint0_linear_33709_5732)"/>
<defs>
<linearGradient id="paint0_linear_33709_5732" x1="6.16315" y1="23.3161" x2="76.3086" y2="66.4533" gradientUnits="userSpaceOnUse">
<stop stop-color="#A74FAE"/>
<stop offset="0.540815" stop-color="#E25930"/>
<stop offset="1" stop-color="#FC863E"/>
</linearGradient>
</defs>
</svg>
